HIERARCHY
ROOT Hip
{
	OFFSET -0.248980 0.196823 0.122301
	CHANNELS 6 Xposition Yposition Zposition Xrotation Yrotation Zrotation
	JOINT LowerSpine
	{
		OFFSET 0.000000 0.154442 0.259456
		CHANNELS 6 Xposition Yposition Zposition Xrotation Yrotation Zrotation
		JOINT MiddleSpine
		{
			OFFSET 0.000000 -0.011133 0.236774
			CHANNELS 3 Xrotation Yrotation Zrotation
			JOINT Chest
			{
				OFFSET 0.000000 0.058693 0.292978
				CHANNELS 3 Xrotation Yrotation Zrotation
				JOINT Neck
				{
					OFFSET -0.000000 0.012356 0.660221
					CHANNELS 6 Xposition Yposition Zposition Xrotation Yrotation Zrotation
					JOINT Head
					{
						OFFSET -0.000003 -0.101410 0.372834
						CHANNELS 3 Xrotation Yrotation Zrotation
						End Site
						{
							OFFSET 0.000000 -0.001598 0.053543
						}
					}
				}
				JOINT LClavicle
				{
					OFFSET 0.059990 -0.196462 0.637146
					CHANNELS 6 Xposition Yposition Zposition Xrotation Yrotation Zrotation
					JOINT LShoulder
					{
						OFFSET 0.350465 0.147876 0.091389
						CHANNELS 3 Xrotation Yrotation Zrotation
						JOINT LForearm
						{
							OFFSET 0.827173 0.007168 -0.002931
							CHANNELS 3 Xrotation Yrotation Zrotation
							JOINT LHand
							{
								OFFSET 0.690037 0.004133 0.002002
								CHANNELS 3 Xrotation Yrotation Zrotation
								JOINT LFinger1
								{
									OFFSET 0.267439 -0.074281 0.023388
									CHANNELS 6 Xposition Yposition Zposition Xrotation Yrotation Zrotation
									JOINT LFinger11
									{
										OFFSET 0.100036 -0.017626 -0.024394
										CHANNELS 3 Xrotation Yrotation Zrotation
										JOINT LFinger12
										{
											OFFSET 0.068292 -0.012037 -0.016657
											CHANNELS 3 Xrotation Yrotation Zrotation
											End Site
											{
												OFFSET 0.050720 -0.008226 -0.015141
											}
										}
									}
								}
								JOINT LFinger2
								{
									OFFSET 0.271429 -0.006468 0.027009
									CHANNELS 6 Xposition Yposition Zposition Xrotation Yrotation Zrotation
									JOINT LFinger21
									{
										OFFSET 0.123687 0.000731 0.000344
										CHANNELS 3 Xrotation Yrotation Zrotation
										JOINT LFinger22
										{
											OFFSET 0.068561 0.000417 0.000210
											CHANNELS 3 Xrotation Yrotation Zrotation
											End Site
											{
												OFFSET 0.053434 -0.000070 -0.003773
											}
										}
									}
								}
								JOINT LFinger3
								{
									OFFSET 0.257236 0.060858 0.018026
									CHANNELS 6 Xposition Yposition Zposition Xrotation Yrotation Zrotation
									JOINT LFinger31
									{
										OFFSET 0.112235 0.007028 -0.005681
										CHANNELS 3 Xrotation Yrotation Zrotation
										JOINT LFinger32
										{
											OFFSET 0.063958 0.004018 -0.003217
											CHANNELS 3 Xrotation Yrotation Zrotation
											End Site
											{
												OFFSET 0.053108 0.002511 -0.006529
											}
										}
									}
								}
								JOINT LFinger4
								{
									OFFSET 0.238706 0.105101 -0.018139
									CHANNELS 6 Xposition Yposition Zposition Xrotation Yrotation Zrotation
									JOINT LFinger41
									{
										OFFSET 0.069034 0.019057 -0.014398
										CHANNELS 3 Xrotation Yrotation Zrotation
										JOINT LFinger42
										{
											OFFSET 0.050624 0.013983 -0.010542
											CHANNELS 3 Xrotation Yrotation Zrotation
											End Site
											{
												OFFSET 0.050433 0.011572 -0.013857
											}
										}
									}
								}
								JOINT LFinger0
								{
									OFFSET 0.055325 -0.041941 -0.041874
									CHANNELS 6 Xposition Yposition Zposition Xrotation Yrotation Zrotation
									JOINT LFinger01
									{
										OFFSET 0.103004 -0.077658 -0.033827
										CHANNELS 3 Xrotation Yrotation Zrotation
										JOINT LFinger02
										{
											OFFSET 0.067827 -0.048866 -0.024270
											CHANNELS 3 Xrotation Yrotation Zrotation
											End Site
											{
												OFFSET 0.042516 -0.029114 -0.014636
											}
										}
									}
								}
							}
						}
					}
				}
				JOINT RClavicle
				{
					OFFSET -0.059990 -0.196459 0.637146
					CHANNELS 6 Xposition Yposition Zposition Xrotation Yrotation Zrotation
					JOINT RShoulder
					{
						OFFSET -0.350526 0.147902 0.091406
						CHANNELS 3 Xrotation Yrotation Zrotation
						JOINT RForearm
						{
							OFFSET -0.827173 0.007168 -0.002931
							CHANNELS 3 Xrotation Yrotation Zrotation
							JOINT RHand
							{
								OFFSET -0.690037 0.004133 0.002002
								CHANNELS 3 Xrotation Yrotation Zrotation
								JOINT RFinger1
								{
									OFFSET -0.267439 -0.074281 0.023391
									CHANNELS 6 Xposition Yposition Zposition Xrotation Yrotation Zrotation
									JOINT RFinger11
									{
										OFFSET -0.100036 -0.017626 -0.024394
										CHANNELS 3 Xrotation Yrotation Zrotation
										JOINT RFinger12
										{
											OFFSET -0.068292 -0.012037 -0.016660
											CHANNELS 3 Xrotation Yrotation Zrotation
											End Site
											{
												OFFSET -0.050720 -0.008226 -0.015141
											}
										}
									}
								}
								JOINT RFinger2
								{
									OFFSET -0.271429 -0.006468 0.027011
									CHANNELS 6 Xposition Yposition Zposition Xrotation Yrotation Zrotation
									JOINT RFinger21
									{
										OFFSET -0.123690 0.000731 0.000344
										CHANNELS 3 Xrotation Yrotation Zrotation
										JOINT RFinger22
										{
											OFFSET -0.068561 0.000420 0.000210
											CHANNELS 3 Xrotation Yrotation Zrotation
											End Site
											{
												OFFSET -0.053434 -0.000070 -0.003773
											}
										}
									}
								}
								JOINT RFinger3
								{
									OFFSET -0.257236 0.060858 0.018026
									CHANNELS 6 Xposition Yposition Zposition Xrotation Yrotation Zrotation
									JOINT RFinger31
									{
										OFFSET -0.112235 0.007028 -0.005681
										CHANNELS 3 Xrotation Yrotation Zrotation
										JOINT RFinger32
										{
											OFFSET -0.063957 0.004018 -0.003217
											CHANNELS 3 Xrotation Yrotation Zrotation
											End Site
											{
												OFFSET -0.053108 0.002511 -0.006529
											}
										}
									}
								}
								JOINT RFinger4
								{
									OFFSET -0.238705 0.105101 -0.018139
									CHANNELS 6 Xposition Yposition Zposition Xrotation Yrotation Zrotation
									JOINT RFinger41
									{
										OFFSET -0.069034 0.019057 -0.014395
										CHANNELS 3 Xrotation Yrotation Zrotation
										JOINT RFinger42
										{
											OFFSET -0.050624 0.013983 -0.010539
											CHANNELS 3 Xrotation Yrotation Zrotation
											End Site
											{
												OFFSET -0.050433 0.011572 -0.013857
											}
										}
									}
								}
								JOINT RFinger0
								{
									OFFSET -0.055325 -0.041938 -0.041872
									CHANNELS 6 Xposition Yposition Zposition Xrotation Yrotation Zrotation
									JOINT RFinger01
									{
										OFFSET -0.103004 -0.077661 -0.033832
										CHANNELS 3 Xrotation Yrotation Zrotation
										JOINT RFinger02
										{
											OFFSET -0.067824 -0.048865 -0.024268
											CHANNELS 3 Xrotation Yrotation Zrotation
											End Site
											{
												OFFSET -0.042516 -0.029114 -0.014636
											}
										}
									}
								}
							}
						}
					}
				}
			}
		}
	}
	JOINT RThigh
	{
		OFFSET -0.306771 0.025164 0.117281
		CHANNELS 6 Xposition Yposition Zposition Xrotation Yrotation Zrotation
		JOINT RShin
		{
			OFFSET -0.022210 0.000000 -1.207231
			CHANNELS 3 Xrotation Yrotation Zrotation
			JOINT RFoot
			{
				OFFSET 0.000000 -0.000000 -1.185430
				CHANNELS 3 Xrotation Yrotation Zrotation
				JOINT RToe
				{
					OFFSET 0.000000 -0.272451 -0.130290
					CHANNELS 3 Xrotation Yrotation Zrotation
					End Site
					{
						OFFSET 0.000000 -0.053567 0.000000
					}
				}
			}
		}
	}
	JOINT LThigh
	{
		OFFSET 0.306765 0.025166 0.117289
		CHANNELS 6 Xposition Yposition Zposition Xrotation Yrotation Zrotation
		JOINT LShin
		{
			OFFSET 0.022212 -0.000000 -1.207240
			CHANNELS 3 Xrotation Yrotation Zrotation
			JOINT LFoot
			{
				OFFSET -0.000000 -0.000000 -1.185430
				CHANNELS 3 Xrotation Yrotation Zrotation
				JOINT LToe
				{
					OFFSET -0.000000 -0.272454 -0.130289
					CHANNELS 3 Xrotation Yrotation Zrotation
					End Site
					{
						OFFSET 0.000000 -0.053567 0.000000
					}
				}
			}
		}
	}
}
MOTION
Frames: 5
Frame Time: 0.041667
-0.239110 0.116266 2.346495 6.211939 9.262642 -0.000004 0.000000 0.154442 0.259456 -0.000019 -0.000000 -0.000003 -1.666673 -1.912853 -0.148069 -5.703320 -6.520829 -0.704031 0.000000 0.012356 0.660220 -2.709226 -0.154575 -0.046033 -1.681120 -0.645109 -0.028754 0.059990 -0.196462 0.637145 -4.476490 15.040797 -0.028805 68.976612 40.193679 -61.943170 0.000148 0.000013 -2.576676 0.000004 -0.000004 0.000001 0.267439 -0.074281 0.023388 0.000004 -0.000009 -0.000003 -0.000013 0.000007 0.000004 0.000012 0.000009 -0.000004 0.271429 -0.006468 0.027009 0.000002 -0.000002 0.000000 0.000004 0.000003 0.000002 0.000001 0.000002 0.000003 0.257236 0.060858 0.018026 0.000002 -0.000001 0.000002 -0.000004 -0.000000 0.000001 0.000002 -0.000001 -0.000000 0.238706 0.105100 -0.018139 0.000010 -0.000004 -0.000002 -0.000008 -0.000003 -0.000004 -0.000002 0.000008 0.000003 0.055325 -0.041941 -0.041874 0.000010 -0.000001 0.000015 0.000002 0.000000 -0.000004 0.000009 -0.000009 -0.000003 -0.059990 -0.196459 0.637145 4.724989 5.575586 12.657699 77.813620 -31.733622 83.816195 0.016169 -0.001757 4.095340 0.000001 0.000001 -0.000001 -0.267438 -0.074281 0.023391 -0.000003 -0.000008 -0.000009 0.000002 -0.000006 0.000007 -0.000003 0.000002 0.000002 -0.271429 -0.006468 0.027012 0.000004 -0.000005 0.000000 0.000001 0.000004 0.000000 0.000005 0.000009 0.000000 -0.257236 0.060858 0.018026 0.000000 -0.000001 0.000001 0.000006 -0.000005 -0.000001 -0.000000 0.000003 0.000003 -0.238705 0.105100 -0.018139 -0.000000 -0.000007 -0.000006 0.000001 -0.000002 0.000010 0.000008 -0.000002 0.000008 -0.055325 -0.041939 -0.041871 -0.000001 -0.000008 0.000010 0.000003 -0.000014 -0.000005 0.000004 -0.000005 -0.000009 -0.305691 0.085892 0.093444 -11.747314 -11.449987 -0.287782 2.044698 0.000003 0.000002 1.022040 -0.140593 0.301626 -0.000003 -0.000003 -0.000000 0.293328 0.034254 0.199672 -8.218810 -9.147712 0.948222 0.291913 0.000033 0.000006 0.249602 0.017361 -0.029579 -0.000004 -0.000098 -0.000004 
-0.239110 0.116266 2.346495 6.211939 9.262642 -0.000004 0.000000 0.154442 0.259456 -0.000019 -0.000000 -0.000003 -1.666673 -1.912853 -0.148069 -5.703320 -6.520829 -0.704031 0.000000 0.012356 0.660220 -2.709226 -0.154575 -0.046033 -1.681120 -0.645109 -0.028754 0.059990 -0.196462 0.637145 -4.476490 15.040797 -0.028805 68.976612 40.193679 -61.943170 0.000148 0.000013 -2.576676 0.000004 -0.000004 0.000001 0.267439 -0.074281 0.023388 0.000004 -0.000009 -0.000003 -0.000013 0.000007 0.000004 0.000012 0.000009 -0.000004 0.271429 -0.006468 0.027009 0.000002 -0.000002 0.000000 0.000004 0.000003 0.000002 0.000001 0.000002 0.000003 0.257236 0.060858 0.018026 0.000002 -0.000001 0.000002 -0.000004 -0.000000 0.000001 0.000002 -0.000001 -0.000000 0.238706 0.105100 -0.018139 0.000010 -0.000004 -0.000002 -0.000008 -0.000003 -0.000004 -0.000002 0.000008 0.000003 0.055325 -0.041941 -0.041874 0.000010 -0.000001 0.000015 0.000002 0.000000 -0.000004 0.000009 -0.000009 -0.000003 -0.059990 -0.196459 0.637145 4.724989 5.575586 12.657699 77.813620 -31.733622 83.816195 0.016169 -0.001757 4.095340 0.000001 0.000001 -0.000001 -0.267438 -0.074281 0.023391 -0.000003 -0.000008 -0.000009 0.000002 -0.000006 0.000007 -0.000003 0.000002 0.000002 -0.271429 -0.006468 0.027012 0.000004 -0.000005 0.000000 0.000001 0.000004 0.000000 0.000005 0.000009 0.000000 -0.257236 0.060858 0.018026 0.000000 -0.000001 0.000001 0.000006 -0.000005 -0.000001 -0.000000 0.000003 0.000003 -0.238705 0.105100 -0.018139 -0.000000 -0.000007 -0.000006 0.000001 -0.000002 0.000010 0.000008 -0.000002 0.000008 -0.055325 -0.041939 -0.041871 -0.000001 -0.000008 0.000010 0.000003 -0.000014 -0.000005 0.000004 -0.000005 -0.000009 -0.305691 0.085892 0.093444 -11.747314 -11.449987 -0.287782 2.044698 0.000003 0.000002 1.022040 -0.140593 0.301626 -0.000003 -0.000003 -0.000000 0.293328 0.034254 0.199672 -8.218810 -9.147712 0.948222 0.291913 0.000033 0.000006 0.249602 0.017361 -0.029579 -0.000004 -0.000098 -0.000004 
-0.237492 0.097637 2.350448 4.979227 8.216712 2.216687 0.000000 0.154442 0.259456 -0.000011 -0.000001 -0.000002 -1.194593 -1.498418 -0.093249 -4.567761 -5.882740 -0.255499 0.000000 0.012356 0.660220 -4.112667 -0.165327 -0.052442 -2.599718 -1.018525 -0.067697 0.059990 -0.196462 0.637145 -4.424859 14.846579 0.005537 67.379174 38.991238 -61.394576 0.005136 -0.011510 -4.470150 0.000001 -0.000001 -0.000000 0.267439 -0.074281 0.023388 -0.000006 -0.000001 -0.000001 -0.000009 0.000005 -0.000002 0.000009 0.000009 -0.000005 0.271428 -0.006468 0.027009 -0.000008 -0.000004 -0.000003 -0.000007 0.000001 0.000003 0.000002 -0.000000 0.000002 0.257236 0.060858 0.018026 -0.000002 -0.000007 -0.000004 0.000003 0.000000 0.000002 0.000006 -0.000002 -0.000001 0.238705 0.105101 -0.018139 0.000004 -0.000007 -0.000001 0.000001 -0.000008 -0.000000 -0.000010 0.000006 0.000002 0.055325 -0.041941 -0.041874 0.000005 0.000001 0.000008 0.000004 0.000009 0.000004 0.000011 -0.000004 -0.000008 -0.059990 -0.196459 0.637145 3.522567 3.665396 9.102394 76.760664 -36.417616 80.550504 0.019561 0.007411 5.511429 -0.000004 -0.000003 -0.000002 -0.267439 -0.074281 0.023391 -0.000017 -0.000010 -0.000001 0.000001 -0.000003 0.000006 -0.000002 0.000002 0.000004 -0.271429 -0.006468 0.027012 -0.000005 -0.000007 -0.000000 -0.000001 0.000004 0.000001 0.000001 0.000005 0.000003 -0.257237 0.060858 0.018027 0.000000 -0.000002 -0.000001 0.000002 -0.000005 -0.000001 -0.000000 0.000002 0.000002 -0.238706 0.105101 -0.018139 -0.000011 -0.000007 0.000001 0.000001 -0.000004 0.000006 -0.000013 -0.000002 0.000005 -0.055325 -0.041938 -0.041872 -0.000001 -0.000003 0.000016 0.000009 -0.000011 0.000010 0.000015 -0.000009 -0.000013 -0.305684 0.085911 0.093805 -10.578531 -10.348977 0.885185 2.907655 0.000513 0.000013 1.022038 -0.140595 0.301625 -0.002989 -0.000004 0.000001 0.293349 0.034241 0.199498 -7.496347 -7.635120 0.576725 0.448996 0.000033 0.000005 0.184334 -0.173715 0.375505 -0.000614 -0.000098 -0.000004 
-0.238606 0.092088 2.351588 4.807336 8.117114 2.633518 0.000000 0.154442 0.259457 -0.000011 0.000001 -0.000004 -1.070715 -1.371192 -0.086083 -4.730963 -6.320024 -0.258148 0.000000 0.012356 0.660221 -4.453310 -0.176924 -0.056122 -2.888203 -1.163647 -0.084955 0.059990 -0.196462 0.637146 -4.392631 14.744577 0.007679 67.511482 38.602638 -61.560365 0.007844 -0.018087 -5.546246 -0.000003 -0.000004 -0.000001 0.267440 -0.074281 0.023388 0.000007 -0.000010 -0.000000 -0.000005 0.000005 0.000001 0.000006 0.000003 -0.000005 0.271428 -0.006468 0.027008 0.000007 -0.000003 0.000000 0.000001 0.000006 0.000003 -0.000001 -0.000001 0.000000 0.257236 0.060858 0.018026 0.000004 -0.000003 0.000001 0.000008 0.000001 0.000002 0.000007 0.000002 -0.000001 0.238706 0.105100 -0.018139 0.000000 -0.000004 -0.000000 0.000007 -0.000005 -0.000001 0.000003 0.000012 0.000005 0.055326 -0.041941 -0.041874 0.000003 0.000002 0.000006 -0.000012 0.000008 -0.000001 0.000008 -0.000007 0.000004 -0.059990 -0.196459 0.637146 3.197012 3.222855 8.242557 76.396458 -36.861161 79.463439 0.018105 0.004120 4.918885 0.000004 0.000001 -0.000000 -0.267439 -0.074281 0.023391 -0.000005 -0.000004 -0.000003 -0.000004 -0.000002 0.000004 -0.000004 0.000001 0.000003 -0.271429 -0.006468 0.027012 -0.000003 -0.000006 0.000003 -0.000000 0.000003 0.000001 0.000007 0.000009 0.000003 -0.257237 0.060858 0.018027 0.000001 0.000002 0.000001 0.000003 -0.000007 -0.000002 -0.000001 0.000002 0.000004 -0.238705 0.105101 -0.018139 0.000004 -0.000005 -0.000006 -0.000003 -0.000006 0.000008 -0.000014 -0.000003 0.000007 -0.055325 -0.041939 -0.041872 0.000008 -0.000005 0.000012 0.000003 -0.000015 0.000002 -0.000003 -0.000009 -0.000003 -0.305673 0.085943 0.094410 -10.927525 -10.301434 1.135478 3.557724 0.001025 0.000014 1.022047 -0.140595 0.301625 -0.005970 -0.000004 -0.000001 0.293386 0.034220 0.199209 -7.355549 -7.463384 0.488818 0.419374 0.000033 0.000006 0.118373 -0.151508 0.329813 -0.001234 -0.000099 -0.000004 
-0.241809 0.090787 2.350962 4.694174 7.968278 2.686851 0.000000 0.154442 0.259457 -0.000011 0.000001 -0.000003 -1.037023 -1.317463 -0.100167 -4.620322 -6.161429 -0.242497 0.000000 0.012356 0.660221 -4.507787 -0.188778 -0.059001 -3.022984 -1.257099 -0.095876 0.059990 -0.196462 0.637146 -4.368830 14.682456 -0.004130 67.623688 37.737891 -61.414650 0.010094 -0.023738 -6.467432 -0.000005 -0.000005 -0.000001 0.267440 -0.074282 0.023388 0.000008 -0.000009 0.000003 -0.000013 0.000007 0.000003 0.000018 0.000011 -0.000006 0.271429 -0.006468 0.027009 0.000009 0.000001 0.000001 -0.000004 0.000004 0.000002 -0.000001 -0.000002 0.000002 0.257236 0.060858 0.018026 0.000001 -0.000003 -0.000002 -0.000009 0.000000 0.000003 0.000002 0.000000 0.000001 0.238705 0.105100 -0.018139 0.000007 -0.000005 -0.000001 0.000007 -0.000004 0.000000 0.000003 0.000010 -0.000001 0.055326 -0.041941 -0.041874 0.000002 -0.000002 0.000003 0.000007 0.000006 -0.000003 0.000003 -0.000007 0.000003 -0.059990 -0.196460 0.637146 3.108470 3.065895 7.991379 76.610837 -36.072118 79.830513 0.017186 0.002295 4.560989 -0.000005 -0.000000 -0.000002 -0.267439 -0.074281 0.023391 -0.000020 -0.000005 -0.000003 -0.000001 -0.000005 0.000002 -0.000002 0.000007 -0.000001 -0.271429 -0.006468 0.027011 0.000001 -0.000005 0.000001 -0.000002 0.000003 0.000001 0.000001 0.000008 0.000002 -0.257237 0.060858 0.018026 0.000001 0.000001 0.000001 0.000001 -0.000006 -0.000000 0.000003 0.000002 0.000005 -0.238706 0.105101 -0.018139 0.000002 -0.000001 -0.000004 -0.000009 -0.000009 0.000007 -0.000002 0.000004 0.000004 -0.055325 -0.041939 -0.041872 0.000004 0.000001 0.000005 -0.000002 -0.000008 0.000003 -0.000001 -0.000007 -0.000003 -0.305657 0.085987 0.095259 -11.275970 -10.164442 1.293961 4.953031 0.001534 -0.000019 1.022043 -0.140594 0.301625 -0.008960 -0.000003 -0.000001 0.293438 0.034190 0.198802 -7.236077 -7.238541 0.484735 0.389753 0.000033 0.000007 0.252170 0.036395 -0.063509 -0.001850 -0.000098 -0.000004 
